<?xml version="1.0" ?><!-- Uploaded to: SVG Repo, www.svgrepo.com, Generator: SVG Repo Mixer Tools -->
<svg fill="#000000" width="800px" height="800px" viewBox="0 0 96 96" id="Layer_1_1_" version="1.1" xml:space="preserve" xmlns="http://www.w3.org/2000/svg" xmlns:xlink="http://www.w3.org/1999/xlink"><path d="M93,84L93,84c0-0.671-0.044-1.337-0.111-2H3.111C3.044,82.663,3,83.329,3,84v0c0,5.523,4.477,10,10,10h70  C88.523,94,93,89.523,93,84z M14,89.5c-1.105,0-2-0.895-2-2c0-1.105,0.895-2,2-2s2,0.895,2,2C16,88.605,15.105,89.5,14,89.5z M22,86  h-2v-2h2V86z M30,91h-2v-2h2V91z M43,89c-1.105,0-2-0.895-2-2c0-1.105,0.895-2,2-2s2,0.895,2,2C45,88.105,44.105,89,43,89z M56,91  h-2v-2h2V91z M68,87h-2v-2h2V87z M80,89c-1.105,0-2-0.895-2-2c0-1.105,0.895-2,2-2s2,0.895,2,2C82,88.105,81.105,89,80,89z"/><path d="M64,14V2H32v12h3v23L7.373,71.534C5.387,74.016,4.052,76.924,3.422,80H25v-6.069c-3.945-0.493-7-3.852-7-7.931  c4.079,0,7.438,3.055,7.931,7h0.138c0.493-3.945,3.852-7,7.931-7c0,4.079-3.055,7.438-7,7.931V80h20v-6.069  c-3.945-0.493-7-3.852-7-7.931c4.079,0,7.438,3.055,7.931,7h0.138c0.493-3.945,3.852-7,7.931-7c0,4.079-3.055,7.438-7,7.931V80h20  v-6.069c-3.945-0.493-7-3.852-7-7.931c4.079,0,7.438,3.055,7.931,7h0.138c0.493-3.945,3.852-7,7.931-7c0,4.079-3.055,7.438-7,7.931  V80h21.578c-0.63-3.076-1.965-5.984-3.951-8.466L61,37V14H64z M54,15H38v-2h16V15z M58,15h-2v-2h2V15z"/><rect height="2" width="2" x="90" y="2"/><rect height="2" width="2" x="90" y="6"/><rect height="2" width="2" x="92" y="4"/><rect height="2" width="2" x="88" y="4"/><rect height="2" width="2" x="78" y="29"/><rect height="2" width="2" x="78" y="33"/><rect height="2" width="2" x="80" y="31"/><rect height="2" width="2" x="76" y="31"/><rect height="2" width="2" x="20" y="26"/><rect height="2" width="2" x="20" y="30"/><rect height="2" width="2" x="22" y="28"/><rect height="2" width="2" x="18" y="28"/><rect height="2" width="2" x="4" y="7"/><rect height="2" width="2" x="4" y="11"/><rect height="2" width="2" x="6" y="9"/><rect height="2" width="2" x="2" y="9"/></svg>